<svg xmlns="http://www.w3.org/2000/svg" version="1.1" xmlns:xlink="http://www.w3.org/1999/xlink" xmlns:svgjs="http://svgjs.com/svgjs" width="1440" height="560" preserveAspectRatio="none" viewBox="0 0 1440 560"><g mask="url(&quot;#SvgjsMask1894&quot;)" fill="none"><rect width="1440" height="560" x="0" y="0" fill="url(#SvgjsLinearGradient1895)"></rect><path d="M0 0L453.4 0L0 152.44z" fill="rgba(255, 255, 255, .1)"></path><path d="M0 152.44L453.4 0L666.95 0L0 346.43z" fill="rgba(255, 255, 255, .075)"></path><path d="M0 346.43L666.95 0L855.7900000000001 0L0 355.69z" fill="rgba(255, 255, 255, .05)"></path><path d="M0 355.69L855.7900000000001 0L971.1200000000001 0L0 496.03z" fill="rgba(255, 255, 255, .025)"></path><path d="M1440 560L1144.43 560L1440 418.57z" fill="rgba(0, 0, 0, .1)"></path><path d="M1440 418.57L1144.43 560L824.1200000000001 560L1440 377.34z" fill="rgba(0, 0, 0, .075)"></path><path d="M1440 377.34000000000003L824.12 560L671.72 560L1440 205.86000000000004z" fill="rgba(0, 0, 0, .05)"></path><path d="M1440 205.86L671.72 560L641.57 560L1440 115.05000000000001z" fill="rgba(0, 0, 0, .025)"></path></g><defs><mask id="SvgjsMask1894"><rect width="1440" height="560" fill="#ffffff"></rect></mask><linearGradient x1="50%" y1="100%" x2="50%" y2="0%" gradientUnits="userSpaceOnUse" id="SvgjsLinearGradient1895"><stop stop-color="rgba(0, 74, 23, 1)" offset="0"></stop><stop stop-color="rgba(0, 251, 255, 1)" offset="1"></stop></linearGradient></defs></svg>